<?xml version="1.0" encoding="UTF-8"?>
<svg width="800" height="494.67" version="1.1" viewBox="0 0 800 494.67" xmlns="http://www.w3.org/2000/svg">
 <rect x=".32" y=".32001" width="799.37" height="494.04" fill="#ffc90e" stroke="#ccc" stroke-dasharray="1.25725816, 2.51451633" stroke-linecap="round" stroke-linejoin="round" stroke-width=".62863" style="paint-order:stroke fill markers"/>
 <path d="m192.72 61.07v94.176h-22.009v-94.176z"/>
 <path d="m270.13 61.07v18.628h-23.32v75.548h-22.354v-75.548h-23.458v-18.628z"/>
 <path d="m318.28 61.07 29.46 94.176h-23.734l-5.7265-19.387h-30.495l-5.9334 19.387h-19.318l30.15-94.176zm-25.183 57.402h20.008l-10.004-33.048z"/>
 <path d="m379.07 136.62h37.463v18.628h-59.817v-94.176h22.354z"/>
 <path d="m448.82 61.07v94.176h-22.009v-94.176z"/>
 <path d="m512.84 61.07 29.46 94.176h-23.734l-5.7264-19.387h-30.495l-5.9334 19.387h-19.318l30.15-94.176zm-25.183 57.402h20.008l-10.004-33.048z"/>
 <path d="m623.78 61.07v94.176h-18.835l-36.911-63.612q0.0689 2.4148 0.1378 3.1737 0.27608 2.4148 0.27608 4.0706v56.368h-17.179v-94.176h23.803l32.082 55.54q-0.41388-4.1396-0.41388-6.2784v-49.261z"/>
 <path d="m91.23 274.35h37.463v18.628h-59.817v-94.176h22.354z"/>
 <path d="m185.27 198.8 29.46 94.176h-23.734l-5.7264-19.387h-30.495l-5.9334 19.387h-19.318l30.15-94.176zm-25.183 57.402h20.008l-10.004-33.048z"/>
 <path d="m296.21 198.8v94.176h-18.835l-36.912-63.612q0.0689 2.4147 0.13781 3.1737 0.27608 2.4147 0.27608 4.0706v56.368h-17.179v-94.176h23.803l32.082 55.54q-0.41389-4.1396-0.41389-6.2784v-49.261z"/>
 <path d="m387.28 242.61v50.365h-10.073q-1.1039-5.3125-3.1737-10.832-10.073 12.281-25.666 12.281-18.421 0-28.701-13.178-10.211-13.178-10.211-34.083 0-22.492 10.901-36.153 10.97-13.661 29.736-13.661 15.73 0 25.39 8.8312 9.6591 8.8312 11.798 23.527l-20.974 2.7598q-2.5527-17.11-16.213-17.11-8.9691 0-13.592 8.1412-4.5535 8.0722-4.5535 23.113 0 14.489 4.9675 22.147 4.9675 7.6582 14.144 7.6582 5.9334 0 10.556-3.8636 4.6915-3.8636 4.6915-12.35h-17.731v-17.593z"/>
 <path d="m477.86 198.8v58.644q0 14.213-3.2427 21.181-3.2427 6.8993-12.005 11.384-8.6932 4.4156-22.285 4.4156t-21.664-4.0016q-8.0032-4.0016-12.005-11.384-4.0016-7.3823-4.0016-21.595v-58.644h23.941v58.644q0 7.5893 1.2419 11.177 1.3108 3.5876 5.1055 5.7264 3.8636 2.0698 9.4521 2.0698 6.2094 0 10.073-2.0698 3.9326-2.0698 5.1745-5.4505 1.3109-3.4496 1.3109-11.453v-58.644z"/>
 <path d="m538.54 198.8 29.46 94.176h-23.734l-5.7264-19.387h-30.495l-5.9334 19.387h-19.318l30.15-94.176zm-25.183 57.402h20.008l-10.004-33.048z"/>
 <path d="m647.41 242.61v50.365h-10.073q-1.1039-5.3125-3.1737-10.832-10.073 12.281-25.666 12.281-18.421 0-28.701-13.178-10.211-13.178-10.211-34.083 0-22.492 10.901-36.153 10.97-13.661 29.736-13.661 15.73 0 25.39 8.8312t11.798 23.527l-20.974 2.7598q-2.5527-17.11-16.213-17.11-8.9691 0-13.592 8.1412-4.5536 8.0722-4.5536 23.113 0 14.489 4.9675 22.147 4.9675 7.6582 14.144 7.6582 5.9334 0 10.556-3.8636 4.6915-3.8636 4.6915-12.35h-17.731v-17.593z"/>
 <path d="m731.13 216.74h-44.915v19.318h35.325v17.731h-35.325v20.56h44.915v18.628h-67.338v-94.176h67.338z"/>
 <path d="m284.89 433.61q-19.042 0-29.46-14.282t-10.418-34.566q0-20.629 10.556-34.428t30.081-13.799q19.732 0 29.736 14.765 10.073 14.696 10.073 33.669 0 20.491-10.349 34.566t-30.219 14.075zm0.62093-79.066q-17.386 0-17.386 30.495 0 30.564 17.386 30.564 16.834 0 16.834-30.495 0-30.564-16.834-30.564z"/>
 <path d="m411.15 337.98v94.176h-18.835l-36.911-63.612q0.0689 2.4148 0.1378 3.1737 0.27608 2.4148 0.27608 4.0706v56.368h-17.179v-94.176h23.803l32.082 55.54q-0.41389-4.1396-0.41389-6.2784v-49.261z"/>
 <path d="m451.23 413.53h37.463v18.628h-59.817v-94.176h22.354z"/>
 <path d="m558.13 337.98-29.598 54.505v39.671h-22.078v-39.671l-29.598-54.505h25.597l18.007 35.739 17.869-35.739z"/>
</svg>
